<mxfile host="app.diagrams.net" agent="Mozilla/5.0 (Macintosh; Intel Mac OS X 10_15_7) AppleWebKit/537.36 (KHTML, like Gecko) Chrome/139.0.0.0 Safari/537.36" version="26.1.0">
  <diagram name="第 1 页" id="BkHLORakJmNqdRLEGJDp">
    <mxGraphModel dx="1242" dy="1954" grid="1" gridSize="10" guides="1" tooltips="1" connect="1" arrows="1" fold="1" page="1" pageScale="1" pageWidth="827" pageHeight="1169" math="0" shadow="0">
      <root>
        <mxCell id="0" />
        <mxCell id="1" parent="0" />
        <mxCell id="_jrSsdnpOA3ne-_v9nME-1" value="live.live.dao-anchor" style="rounded=1;whiteSpace=wrap;html=1;" vertex="1" parent="1">
          <mxGeometry x="300" y="470" width="120" height="60" as="geometry" />
        </mxCell>
        <mxCell id="_jrSsdnpOA3ne-_v9nME-8" style="edgeStyle=orthogonalEdgeStyle;rounded=0;orthogonalLoop=1;jettySize=auto;html=1;entryX=0.5;entryY=0;entryDx=0;entryDy=0;" edge="1" parent="1" source="_jrSsdnpOA3ne-_v9nME-2" target="_jrSsdnpOA3ne-_v9nME-5">
          <mxGeometry relative="1" as="geometry" />
        </mxCell>
        <mxCell id="_jrSsdnpOA3ne-_v9nME-2" value="live.live.xroom" style="rounded=1;whiteSpace=wrap;html=1;" vertex="1" parent="1">
          <mxGeometry x="300" y="180" width="120" height="60" as="geometry" />
        </mxCell>
        <mxCell id="_jrSsdnpOA3ne-_v9nME-4" value="&lt;span style=&quot;font-family: ui-sans-serif, system-ui, sans-serif, &amp;quot;Apple Color Emoji&amp;quot;, &amp;quot;Segoe UI Emoji&amp;quot;, &amp;quot;Segoe UI Symbol&amp;quot;, &amp;quot;Noto Color Emoji&amp;quot;; font-size: 14px; font-style: normal; font-variant-ligatures: normal; font-variant-caps: normal; font-weight: 400; letter-spacing: normal; orphans: 2; text-align: left; text-indent: 0px; text-transform: none; widows: 2; word-spacing: 0px; -webkit-text-stroke-width: 0px; white-space: normal; text-decoration-thickness: initial; text-decoration-style: initial; text-decoration-color: initial; float: none; display: inline !important;&quot;&gt;&lt;font style=&quot;color: light-dark(rgb(255, 255, 255), rgb(255, 255, 255));&quot;&gt;/live.daoanchor.v1.DaoAnchor/FetchRoomByIDs&lt;/font&gt;&lt;/span&gt;" style="text;whiteSpace=wrap;html=1;" vertex="1" parent="1">
          <mxGeometry x="370" y="410" width="340" height="40" as="geometry" />
        </mxCell>
        <mxCell id="_jrSsdnpOA3ne-_v9nME-9" style="edgeStyle=orthogonalEdgeStyle;rounded=0;orthogonalLoop=1;jettySize=auto;html=1;entryX=0.5;entryY=0;entryDx=0;entryDy=0;" edge="1" parent="1" source="_jrSsdnpOA3ne-_v9nME-5" target="_jrSsdnpOA3ne-_v9nME-1">
          <mxGeometry relative="1" as="geometry" />
        </mxCell>
        <mxCell id="_jrSsdnpOA3ne-_v9nME-5" value="live.live.alllive" style="rounded=1;whiteSpace=wrap;html=1;" vertex="1" parent="1">
          <mxGeometry x="300" y="320" width="120" height="70" as="geometry" />
        </mxCell>
        <mxCell id="_jrSsdnpOA3ne-_v9nME-7" style="edgeStyle=orthogonalEdgeStyle;rounded=0;orthogonalLoop=1;jettySize=auto;html=1;entryX=0.5;entryY=0;entryDx=0;entryDy=0;" edge="1" parent="1" source="_jrSsdnpOA3ne-_v9nME-6" target="_jrSsdnpOA3ne-_v9nME-2">
          <mxGeometry relative="1" as="geometry" />
        </mxCell>
        <mxCell id="_jrSsdnpOA3ne-_v9nME-6" value="&lt;div style=&quot;box-sizing: border-box; margin: 0px; position: relative; max-width: 33.3333%; min-height: 1px; flex: 0 0 33.3333%; font-family: -apple-system, &amp;quot;system-ui&amp;quot;, &amp;quot;Segoe UI&amp;quot;, Roboto, &amp;quot;Helvetica Neue&amp;quot;, Arial, &amp;quot;Noto Sans&amp;quot;, sans-serif, &amp;quot;Apple Color Emoji&amp;quot;, &amp;quot;Segoe UI Emoji&amp;quot;, &amp;quot;Segoe UI Symbol&amp;quot;, &amp;quot;Noto Color Emoji&amp;quot;; font-size: 14px; text-align: start;&quot; class=&quot;ant-col ant-col-8&quot;&gt;&lt;div style=&quot;box-sizing: border-box; margin: 0px; display: flex; flex-flow: wrap; min-width: 0px; padding: 10px;&quot; class=&quot;ant-row infoRow___sZfdd&quot;&gt;&lt;div style=&quot;box-sizing: border-box; margin: 0px; position: relative; max-width: 100%; min-height: 1px; width: calc(100% - 100px); word-break: break-all;&quot; class=&quot;ant-col infoVal___2-JRF&quot;&gt;&lt;div style=&quot;font-family: Menlo, Monaco, &amp;quot;Courier New&amp;quot;, monospace; font-size: 12px; line-height: 18px; white-space: pre;&quot;&gt;&lt;span&gt;&lt;font style=&quot;color: light-dark(rgb(204, 204, 204), rgb(255, 255, 255));&quot;&gt;live.live.xroom-rec&lt;/font&gt;&lt;/span&gt;&lt;/div&gt;&lt;/div&gt;&lt;/div&gt;&lt;/div&gt;" style="rounded=1;whiteSpace=wrap;html=1;" vertex="1" parent="1">
          <mxGeometry x="240" y="40" width="240" height="60" as="geometry" />
        </mxCell>
        <mxCell id="_jrSsdnpOA3ne-_v9nME-10" value="全量在播本地缓存" style="shape=process;whiteSpace=wrap;html=1;backgroundOutline=1;" vertex="1" parent="1">
          <mxGeometry x="170" y="190" width="130" height="40" as="geometry" />
        </mxCell>
        <mxCell id="_jrSsdnpOA3ne-_v9nME-11" value="全量在播本地缓存" style="shape=process;whiteSpace=wrap;html=1;backgroundOutline=1;" vertex="1" parent="1">
          <mxGeometry x="170" y="335" width="130" height="40" as="geometry" />
        </mxCell>
        <mxCell id="_jrSsdnpOA3ne-_v9nME-13" value="全量在播本地缓存" style="shape=process;whiteSpace=wrap;html=1;backgroundOutline=1;" vertex="1" parent="1">
          <mxGeometry x="110" y="50" width="130" height="40" as="geometry" />
        </mxCell>
        <mxCell id="_jrSsdnpOA3ne-_v9nME-14" value="&lt;div style=&quot;font-family: Menlo, Monaco, &amp;quot;Courier New&amp;quot;, monospace; line-height: 18px; white-space-collapse: preserve;&quot;&gt;&lt;span&gt;&lt;font style=&quot;color: light-dark(rgb(204, 204, 204), rgb(255, 255, 255));&quot;&gt;/live.alllive.v&lt;span&gt;1&lt;/span&gt;.Live/LivingList&lt;/font&gt;&lt;/span&gt;&lt;/div&gt;" style="text;html=1;align=center;verticalAlign=middle;resizable=0;points=[];autosize=1;strokeColor=none;fillColor=none;" vertex="1" parent="1">
          <mxGeometry x="370" y="260" width="250" height="30" as="geometry" />
        </mxCell>
        <mxCell id="_jrSsdnpOA3ne-_v9nME-15" value="&lt;div style=&quot;font-family: Menlo, Monaco, &amp;quot;Courier New&amp;quot;, monospace; line-height: 18px; white-space-collapse: preserve;&quot;&gt;&lt;span&gt;&lt;font style=&quot;color: light-dark(rgb(204, 204, 204), rgb(255, 255, 255));&quot;&gt;/live.xroom.v&lt;span&gt;1&lt;/span&gt;.Room/getAllLivingRoomsInfo&lt;/font&gt;&lt;/span&gt;&lt;/div&gt;" style="text;html=1;align=center;verticalAlign=middle;resizable=0;points=[];autosize=1;strokeColor=none;fillColor=none;" vertex="1" parent="1">
          <mxGeometry x="360" y="118" width="320" height="30" as="geometry" />
        </mxCell>
        <mxCell id="_jrSsdnpOA3ne-_v9nME-18" style="edgeStyle=orthogonalEdgeStyle;rounded=0;orthogonalLoop=1;jettySize=auto;html=1;" edge="1" parent="1" source="_jrSsdnpOA3ne-_v9nME-17" target="_jrSsdnpOA3ne-_v9nME-6">
          <mxGeometry relative="1" as="geometry" />
        </mxCell>
        <mxCell id="_jrSsdnpOA3ne-_v9nME-17" value="&lt;span&gt;&lt;font style=&quot;color: light-dark(rgb(18, 18, 18), rgb(255, 255, 255));&quot;&gt;ai.live.livestream-feed&lt;/font&gt;&lt;/span&gt;" style="rounded=1;whiteSpace=wrap;html=1;" vertex="1" parent="1">
          <mxGeometry x="270" y="-110" width="180" height="60" as="geometry" />
        </mxCell>
        <mxCell id="_jrSsdnpOA3ne-_v9nME-19" value="全量在播本地缓存" style="shape=process;whiteSpace=wrap;html=1;backgroundOutline=1;" vertex="1" parent="1">
          <mxGeometry x="140" y="-100" width="130" height="40" as="geometry" />
        </mxCell>
        <mxCell id="_jrSsdnpOA3ne-_v9nME-20" value="&lt;div style=&quot;font-family: Menlo, Monaco, &amp;quot;Courier New&amp;quot;, monospace; line-height: 18px; white-space-collapse: preserve;&quot;&gt;&lt;span&gt;&lt;font style=&quot;color: light-dark(rgb(204, 204, 204), rgb(255, 255, 255));&quot;&gt;/live.xroomrec.RecPool/getAllLivingRoomsInfo&lt;/font&gt;&lt;/span&gt;&lt;/div&gt;" style="text;html=1;align=center;verticalAlign=middle;resizable=0;points=[];autosize=1;strokeColor=none;fillColor=none;" vertex="1" parent="1">
          <mxGeometry x="360" y="-20" width="340" height="30" as="geometry" />
        </mxCell>
        <mxCell id="_jrSsdnpOA3ne-_v9nME-21" value="全量在播sdk(获取全量在播房间id)" style="shape=process;whiteSpace=wrap;html=1;backgroundOutline=1;" vertex="1" parent="1">
          <mxGeometry x="420" y="190" width="140" height="40" as="geometry" />
        </mxCell>
        <mxCell id="_jrSsdnpOA3ne-_v9nME-22" value="全量在播sdk(获取全量在播房间id)" style="shape=process;whiteSpace=wrap;html=1;backgroundOutline=1;" vertex="1" parent="1">
          <mxGeometry x="420" y="335" width="140" height="40" as="geometry" />
        </mxCell>
        <mxCell id="_jrSsdnpOA3ne-_v9nME-27" style="edgeStyle=orthogonalEdgeStyle;rounded=0;orthogonalLoop=1;jettySize=auto;html=1;entryX=1;entryY=0.5;entryDx=0;entryDy=0;" edge="1" parent="1" source="_jrSsdnpOA3ne-_v9nME-23" target="_jrSsdnpOA3ne-_v9nME-25">
          <mxGeometry relative="1" as="geometry" />
        </mxCell>
        <mxCell id="_jrSsdnpOA3ne-_v9nME-23" value="xanchor" style="shape=cylinder3;whiteSpace=wrap;html=1;boundedLbl=1;backgroundOutline=1;size=15;" vertex="1" parent="1">
          <mxGeometry x="1640" y="-125" width="100" height="90" as="geometry" />
        </mxCell>
        <mxCell id="_jrSsdnpOA3ne-_v9nME-29" style="edgeStyle=orthogonalEdgeStyle;rounded=0;orthogonalLoop=1;jettySize=auto;html=1;entryX=1;entryY=0.5;entryDx=0;entryDy=0;" edge="1" parent="1" source="_jrSsdnpOA3ne-_v9nME-25" target="_jrSsdnpOA3ne-_v9nME-28">
          <mxGeometry relative="1" as="geometry" />
        </mxCell>
        <mxCell id="_jrSsdnpOA3ne-_v9nME-25" value="&lt;span style=&quot;font-family: -apple-system, &amp;quot;system-ui&amp;quot;, &amp;quot;Segoe UI&amp;quot;, Roboto, &amp;quot;Helvetica Neue&amp;quot;, Arial, &amp;quot;Noto Sans&amp;quot;, sans-serif, &amp;quot;Apple Color Emoji&amp;quot;, &amp;quot;Segoe UI Emoji&amp;quot;, &amp;quot;Segoe UI Symbol&amp;quot;, &amp;quot;Noto Color Emoji&amp;quot;; font-size: 14px; text-align: start; white-space: pre;&quot;&gt;&lt;font style=&quot;color: light-dark(rgb(0, 0, 0), rgb(255, 255, 255));&quot;&gt;LiveRoomBinlog-T&lt;/font&gt;&lt;/span&gt;" style="shape=process;whiteSpace=wrap;html=1;backgroundOutline=1;" vertex="1" parent="1">
          <mxGeometry x="1400" y="-100" width="160" height="40" as="geometry" />
        </mxCell>
        <mxCell id="_jrSsdnpOA3ne-_v9nME-36" style="edgeStyle=orthogonalEdgeStyle;rounded=0;orthogonalLoop=1;jettySize=auto;html=1;entryX=0.5;entryY=0;entryDx=0;entryDy=0;" edge="1" parent="1" source="_jrSsdnpOA3ne-_v9nME-28" target="_jrSsdnpOA3ne-_v9nME-30">
          <mxGeometry relative="1" as="geometry">
            <Array as="points">
              <mxPoint x="1235" y="10" />
              <mxPoint x="960" y="10" />
            </Array>
          </mxGeometry>
        </mxCell>
        <mxCell id="_jrSsdnpOA3ne-_v9nME-37" style="edgeStyle=orthogonalEdgeStyle;rounded=0;orthogonalLoop=1;jettySize=auto;html=1;" edge="1" parent="1" source="_jrSsdnpOA3ne-_v9nME-28" target="_jrSsdnpOA3ne-_v9nME-32">
          <mxGeometry relative="1" as="geometry">
            <Array as="points">
              <mxPoint x="1235" y="70" />
              <mxPoint x="1235" y="70" />
            </Array>
          </mxGeometry>
        </mxCell>
        <mxCell id="_jrSsdnpOA3ne-_v9nME-39" style="edgeStyle=orthogonalEdgeStyle;rounded=0;orthogonalLoop=1;jettySize=auto;html=1;entryX=0.5;entryY=0;entryDx=0;entryDy=0;" edge="1" parent="1" source="_jrSsdnpOA3ne-_v9nME-28" target="_jrSsdnpOA3ne-_v9nME-34">
          <mxGeometry relative="1" as="geometry">
            <Array as="points">
              <mxPoint x="1235" y="10" />
              <mxPoint x="1505" y="10" />
            </Array>
          </mxGeometry>
        </mxCell>
        <mxCell id="_jrSsdnpOA3ne-_v9nME-40" style="edgeStyle=orthogonalEdgeStyle;rounded=0;orthogonalLoop=1;jettySize=auto;html=1;" edge="1" parent="1" source="_jrSsdnpOA3ne-_v9nME-28" target="_jrSsdnpOA3ne-_v9nME-35">
          <mxGeometry relative="1" as="geometry">
            <Array as="points">
              <mxPoint x="1235" y="10" />
              <mxPoint x="1800" y="10" />
            </Array>
          </mxGeometry>
        </mxCell>
        <mxCell id="_jrSsdnpOA3ne-_v9nME-46" style="edgeStyle=orthogonalEdgeStyle;rounded=0;orthogonalLoop=1;jettySize=auto;html=1;entryX=1;entryY=0.5;entryDx=0;entryDy=0;" edge="1" parent="1" source="_jrSsdnpOA3ne-_v9nME-28" target="_jrSsdnpOA3ne-_v9nME-45">
          <mxGeometry relative="1" as="geometry" />
        </mxCell>
        <mxCell id="_jrSsdnpOA3ne-_v9nME-28" value="live.live-infra.dao-anchor-binlog-job" style="rounded=1;whiteSpace=wrap;html=1;" vertex="1" parent="1">
          <mxGeometry x="1130" y="-110" width="210" height="60" as="geometry" />
        </mxCell>
        <mxCell id="_jrSsdnpOA3ne-_v9nME-30" value="live.live.xroom" style="rounded=1;whiteSpace=wrap;html=1;" vertex="1" parent="1">
          <mxGeometry x="900" y="130" width="120" height="60" as="geometry" />
        </mxCell>
        <mxCell id="_jrSsdnpOA3ne-_v9nME-32" value="&lt;div style=&quot;font-family: Menlo, Monaco, &amp;quot;Courier New&amp;quot;, monospace; line-height: 18px; white-space: pre;&quot;&gt;&lt;span style=&quot;font-family: -apple-system, &amp;quot;system-ui&amp;quot;, &amp;quot;Segoe UI&amp;quot;, Roboto, &amp;quot;Helvetica Neue&amp;quot;, Arial, &amp;quot;Noto Sans&amp;quot;, sans-serif, &amp;quot;Apple Color Emoji&amp;quot;, &amp;quot;Segoe UI Emoji&amp;quot;, &amp;quot;Segoe UI Symbol&amp;quot;, &amp;quot;Noto Color Emoji&amp;quot;; font-size: 14px; text-align: start; white-space: normal;&quot;&gt;&lt;font style=&quot;color: light-dark(rgb(34, 34, 34), rgb(255, 255, 255));&quot;&gt;main.account.account-service&lt;/font&gt;&lt;/span&gt;&lt;/div&gt;" style="rounded=1;whiteSpace=wrap;html=1;" vertex="1" parent="1">
          <mxGeometry x="1161" y="130" width="210" height="60" as="geometry" />
        </mxCell>
        <mxCell id="_jrSsdnpOA3ne-_v9nME-34" value="&lt;div style=&quot;font-family: Menlo, Monaco, &amp;quot;Courier New&amp;quot;, monospace; line-height: 18px; white-space: pre;&quot;&gt;&lt;span&gt;&lt;font style=&quot;color: light-dark(rgb(206, 145, 120), rgb(255, 255, 255));&quot;&gt;account.service.relation&lt;/font&gt;&lt;/span&gt;&lt;/div&gt;" style="rounded=1;whiteSpace=wrap;html=1;" vertex="1" parent="1">
          <mxGeometry x="1400" y="130" width="210" height="60" as="geometry" />
        </mxCell>
        <mxCell id="_jrSsdnpOA3ne-_v9nME-35" value="&lt;div style=&quot;font-family: Menlo, Monaco, &amp;quot;Courier New&amp;quot;, monospace; line-height: 18px; white-space: pre;&quot;&gt;&lt;span&gt;&lt;font style=&quot;color: light-dark(rgb(0, 0, 0), rgb(255, 255, 255));&quot;&gt;&lt;span style=&quot;font-family: monospace; font-size: 0px; text-align: start; white-space-collapse: collapse; color: rgba(0, 0, 0, 0);&quot;&gt;%3CmxGraphModel%3E%3Croot%3E%3CmxCell%20id%3D%220%22%2F%3E%3CmxCell%20id%3D%221%22%20parent%3D%220%22%2F%3E%3CmxCell%20id%3D%222%22%20value%3D%22%26lt%3Bdiv%20style%3D%26quot%3Bfont-family%3A%20Menlo%2C%20Monaco%2C%20%26amp%3Bquot%3BCourier%20New%26amp%3Bquot%3B%2C%20monospace%3B%20line-height%3A%2018px%3B%20white-space%3A%20pre%3B%26quot%3B%26gt%3B%26lt%3Bspan%26gt%3B%26lt%3Bfont%20style%3D%26quot%3Bcolor%3A%20light-dark(rgb(206%2C%20145%2C%20120)%2C%20rgb(255%2C%20255%2C%20255))%3B%26quot%3B%26gt%3Baccount.service.relation%26lt%3B%2Ffont%26gt%3B%26lt%3B%2Fspan%26gt%3B%26lt%3B%2Fdiv%26gt%3B%22%20style%3D%22rounded%3D1%3BwhiteSpace%3Dwrap%3Bhtml%3D1%3B%22%20vertex%3D%221%22%20parent%3D%221%22%3E%3CmxGeometry%20x%3D%221430%22%20y%3D%22110%22%20width%3D%22210%22%20height%3D%2260%22%20as%3D%22geometry%22%2F%3E%3C%2FmxCell%3E%3C%2Froot%3E%3C%2FmxGraphModel%3E&lt;/span&gt;community.live-comet.broadcast-online&lt;/font&gt;&lt;/span&gt;&lt;/div&gt;" style="rounded=1;whiteSpace=wrap;html=1;" vertex="1" parent="1">
          <mxGeometry x="1654" y="130" width="290" height="60" as="geometry" />
        </mxCell>
        <mxCell id="_jrSsdnpOA3ne-_v9nME-41" value="&lt;div style=&quot;font-family: Menlo, Monaco, &amp;quot;Courier New&amp;quot;, monospace; line-height: 18px; white-space-collapse: preserve;&quot;&gt;&lt;span&gt;&lt;font style=&quot;color: light-dark(rgb(204, 204, 204), rgb(255, 255, 255));&quot;&gt;/live.xroom.v&lt;span&gt;1&lt;/span&gt;.Room/getMultiple&lt;/font&gt;&lt;/span&gt;&lt;/div&gt;" style="text;html=1;align=center;verticalAlign=middle;resizable=0;points=[];autosize=1;strokeColor=none;fillColor=none;" vertex="1" parent="1">
          <mxGeometry x="970" y="60" width="250" height="30" as="geometry" />
        </mxCell>
        <mxCell id="_jrSsdnpOA3ne-_v9nME-42" value="Info3" style="text;html=1;align=center;verticalAlign=middle;resizable=0;points=[];autosize=1;strokeColor=none;fillColor=none;" vertex="1" parent="1">
          <mxGeometry x="1241" y="60" width="50" height="30" as="geometry" />
        </mxCell>
        <mxCell id="_jrSsdnpOA3ne-_v9nME-43" value="&lt;div style=&quot;font-family: Menlo, Monaco, &amp;quot;Courier New&amp;quot;, monospace; line-height: 18px; white-space-collapse: preserve;&quot;&gt;&lt;span&gt;&lt;font style=&quot;color: light-dark(rgb(220, 220, 170), rgb(255, 255, 255));&quot;&gt;BatchFollowerCnt&lt;/font&gt;&lt;/span&gt;&lt;/div&gt;" style="text;html=1;align=center;verticalAlign=middle;resizable=0;points=[];autosize=1;strokeColor=none;fillColor=none;" vertex="1" parent="1">
          <mxGeometry x="1375" y="55" width="140" height="30" as="geometry" />
        </mxCell>
        <mxCell id="_jrSsdnpOA3ne-_v9nME-44" value="&lt;div style=&quot;font-family: Menlo, Monaco, &amp;quot;Courier New&amp;quot;, monospace; line-height: 18px; white-space-collapse: preserve;&quot;&gt;&lt;span&gt;&lt;font style=&quot;color: light-dark(rgb(255, 255, 255), rgb(255, 255, 255));&quot;&gt;LiveRoomOnlineLoginRealCount&lt;/font&gt;&lt;/span&gt;&lt;/div&gt;" style="text;html=1;align=center;verticalAlign=middle;resizable=0;points=[];autosize=1;strokeColor=none;fillColor=none;" vertex="1" parent="1">
          <mxGeometry x="1570" y="55" width="230" height="30" as="geometry" />
        </mxCell>
        <mxCell id="_jrSsdnpOA3ne-_v9nME-48" style="edgeStyle=orthogonalEdgeStyle;rounded=0;orthogonalLoop=1;jettySize=auto;html=1;entryX=1;entryY=0.5;entryDx=0;entryDy=0;" edge="1" parent="1" source="_jrSsdnpOA3ne-_v9nME-45" target="_jrSsdnpOA3ne-_v9nME-47">
          <mxGeometry relative="1" as="geometry" />
        </mxCell>
        <mxCell id="_jrSsdnpOA3ne-_v9nME-45" value="LiveRoomChgDetail-T" style="shape=process;whiteSpace=wrap;html=1;backgroundOutline=1;" vertex="1" parent="1">
          <mxGeometry x="880" y="-100" width="160" height="40" as="geometry" />
        </mxCell>
        <mxCell id="_jrSsdnpOA3ne-_v9nME-51" style="edgeStyle=orthogonalEdgeStyle;rounded=0;orthogonalLoop=1;jettySize=auto;html=1;exitX=0.5;exitY=0;exitDx=0;exitDy=0;" edge="1" parent="1" source="_jrSsdnpOA3ne-_v9nME-47">
          <mxGeometry relative="1" as="geometry">
            <mxPoint x="530" y="-240" as="targetPoint" />
          </mxGeometry>
        </mxCell>
        <mxCell id="_jrSsdnpOA3ne-_v9nME-47" value="&lt;div style=&quot;font-family: Menlo, Monaco, &amp;quot;Courier New&amp;quot;, monospace; line-height: 18px; white-space: pre;&quot;&gt;&lt;span&gt;&lt;font style=&quot;color: light-dark(rgb(255, 255, 255), rgb(255, 255, 255));&quot;&gt;ai.pegasus.pegasus-index-tool&lt;/font&gt;&lt;/span&gt;&lt;/div&gt;" style="rounded=1;whiteSpace=wrap;html=1;" vertex="1" parent="1">
          <mxGeometry x="590" y="-110" width="230" height="60" as="geometry" />
        </mxCell>
        <mxCell id="_jrSsdnpOA3ne-_v9nME-49" value="正排索引(kv存储)" style="shape=cylinder3;whiteSpace=wrap;html=1;boundedLbl=1;backgroundOutline=1;size=15;" vertex="1" parent="1">
          <mxGeometry x="430" y="-320" width="190" height="80" as="geometry" />
        </mxCell>
        <mxCell id="_jrSsdnpOA3ne-_v9nME-50" style="edgeStyle=orthogonalEdgeStyle;rounded=0;orthogonalLoop=1;jettySize=auto;html=1;exitX=0.5;exitY=0;exitDx=0;exitDy=0;entryX=0.5;entryY=1;entryDx=0;entryDy=0;entryPerimeter=0;" edge="1" parent="1" source="_jrSsdnpOA3ne-_v9nME-17" target="_jrSsdnpOA3ne-_v9nME-49">
          <mxGeometry relative="1" as="geometry" />
        </mxCell>
        <mxCell id="_jrSsdnpOA3ne-_v9nME-52" value="binlog" style="text;html=1;align=center;verticalAlign=middle;resizable=0;points=[];autosize=1;strokeColor=none;fillColor=none;" vertex="1" parent="1">
          <mxGeometry x="1570" y="-110" width="60" height="30" as="geometry" />
        </mxCell>
      </root>
    </mxGraphModel>
  </diagram>
</mxfile>
